<svg xmlns="http://www.w3.org/2000/svg" viewBox="0 0 220.92 30.16"><path d="M47.21 30.16c-8.8 0-14.21-6.28-14.21-15.08S38.41 0 47.21 0s14.24 6.28 14.24 15.08S56 30.16 47.21 30.16zm0-25.16c-5.45 0-8.38 4.19-8.38 10.05s2.93 10.05 8.38 10.05 8.38-4.19 8.38-10.05S52.66 5 47.21 5zm40.88 13h-8l-.42.42v10.9l-.42.42h-5l-.42-.42V.84l.42-.42h13.84c5.86 0 10.05 2.93 10.05 8.8S94 18 88.09 18zm0-12.57h-8l-.42.42v6.7l.42.42h8c2.51 0 4.19-.84 4.19-3.77s-1.67-3.75-4.19-3.75zM149.14.42h-5.03l-.42.42v10.51l-.41.41h-12.04v5.87h12.04l.41.42v11.27l.42.42h5.03l.42-.42V.84l-.42-.42zm39.08 29.32h-3.77l-.42-.42-2.09-5.45-.84-.42h-10.47l-.84.42-2.09 5.45-.42.42h-3.77l-.42-.42v-4.19L172.72.84l.42-.42h5.45l.42.42 9.63 24.3v4.19zM176.07 8h-.42l-3.76 10 .42.42h7.12l.42-.42zm44.43-2.55h-8.38l-.42.42v23.45l-.42.42h-5l-.42-.42V5.86l-.42-.42H197l-.38-.44V.84l.38-.42h23.5l.42.42V5zm-196.62 0H15.5l-.42.42v23.45l-.42.42h-5l-.42-.42V5.86l-.44-.41H.42L0 5V.84L.42.42h23.46l.42.42V5zM131.24.83v10.93h-5.45l-.41-.42V.83l.41-.41h5.03l.42.41zm0 16.8v11.69l-.42.42h-5.03l-.41-.42V18.05l.41-.42h5.45z" fill="#934af4" data-name="Layer 2"/></svg>