<svg xmlns="http://www.w3.org/2000/svg" xmlns:xlink="http://www.w3.org/1999/xlink" width="200" height="34.2" viewBox="0 0 200 34.2"><defs><style>.cls-1{fill:none;}.cls-2{fill:#484848;}.cls-3{fill:#b52025;}.cls-4{fill:#494848;}.cls-5{clip-path:url(#clip-path);}.cls-6{fill:#fff;}.cls-7{fill:#c12228;}</style><clipPath id="clip-path" transform="translate(0 0)"><path class="cls-1" d="M17,0a4.7,4.7,0,0,0-3.3,1.4L1.4,13.7a4.6,4.6,0,0,0,0,6.7L13.7,32.8a.2.2,0,0,1,.2.2h6.3c.1-.1.1-.2.2-.2L32.8,20.4a4.8,4.8,0,0,0,0-6.7L20.4,1.4A4.7,4.7,0,0,0,17.1,0Z"/></clipPath></defs><title>Opus_Logo</title><g id="Layer_2" data-name="Layer 2"><g id="Layer_1-2" data-name="Layer 1"><path class="cls-2" d="M51.1,21a6.9,6.9,0,0,0,3.4-.9A7.5,7.5,0,0,0,57.2,17a13.1,13.1,0,0,0,1-5,14.6,14.6,0,0,0-.8-4.2A6.7,6.7,0,0,0,55,4.1a5.9,5.9,0,0,0-3.7-1.2,7.7,7.7,0,0,0-3.2.7,6.1,6.1,0,0,0-2.7,2.8,12.2,12.2,0,0,0-1.1,5.9c0,2.9.6,5.1,1.9,6.5A6.1,6.1,0,0,0,51.1,21M40.6,11.8a11.5,11.5,0,0,1,.7-3.4,11.2,11.2,0,0,1,2-3.3A10.6,10.6,0,0,1,46.2,3a12.2,12.2,0,0,1,5.3-1,9.7,9.7,0,0,1,7.3,3,9.9,9.9,0,0,1,3,7.3A9,9,0,0,1,58.7,19a10.8,10.8,0,0,1-7.8,2.9,11.2,11.2,0,0,1-5.6-1.5A11.9,11.9,0,0,1,42,17a9.9,9.9,0,0,1-1.4-5.2" transform="translate(0 0)"/><path class="cls-2" d="M70.3,6.7a1.3,1.3,0,0,0-.1.6c0,5.6.1,8.7.2,9.4a4.3,4.3,0,0,0,1.3,2.6,7.8,7.8,0,0,0,9.4-.8,7.6,7.6,0,0,0,2-5.3A8.8,8.8,0,0,0,81,7a7.8,7.8,0,0,0-5.7-2.3,7.6,7.6,0,0,0-2.7.5,5.7,5.7,0,0,0-2.3,1.5M64.1,33.6v-.9l2.4-.4a3.5,3.5,0,0,0,.9-.7,2.8,2.8,0,0,0,.1-.9c0-2.4,0-7-.1-13.8V8.3A6.8,6.8,0,0,0,67,5.7l-.3-.4a5.9,5.9,0,0,0-2.4-.8l.2-.7a20.5,20.5,0,0,0,3.4-1.7A8.8,8.8,0,0,0,69.5.4h.3l.5.2a17.7,17.7,0,0,0-.1,1.9V5a10.4,10.4,0,0,1,3.6-1.9,10,10,0,0,1,3.9-.7A8.2,8.2,0,0,1,83.9,5a8.9,8.9,0,0,1,2.5,6.6A10.8,10.8,0,0,1,85,16.9a8.5,8.5,0,0,1-3.9,3.6,11.1,11.1,0,0,1-4.9,1.2,12.5,12.5,0,0,1-4.9-1.2l-.8-.3v3.3c0,4.9.1,7.6.4,8.2s.6.5,1.3.6a5.5,5.5,0,0,1,2.5.5,1.3,1.3,0,0,1,.5.9H64.1Z" transform="translate(0 0)"/><path class="cls-2" d="M88.9,2.8h6.2v.4c0,2.2,0,4.4-.1,6.4s-.1,2-.1,2.1a25.7,25.7,0,0,0,.3,5.2,2.7,2.7,0,0,0,1.3,1.7,4.8,4.8,0,0,0,2.4.6,7.2,7.2,0,0,0,3.3-.7,9.1,9.1,0,0,0,2.7-1.8,11.5,11.5,0,0,0,.1-1.9c0-2.4,0-4,.1-4.8V8.8c0-2.5-.1-3.9-.4-4.3s-1.2-.5-2.8-.7l-1.3-.2a.9.9,0,0,1-.1-.5V2.9h7.6V4.6c-.1,2.3-.1,5.3-.1,8.8v5.1a1.1,1.1,0,0,0,.4.5h3.1v.7l-5.1,1.4-1.3.4a5.8,5.8,0,0,1-.1-1V18.8a2.6,2.6,0,0,0-.1-.7l-.7.5a19.9,19.9,0,0,1-3.9,2.5,6.8,6.8,0,0,1-2.7.7,5.1,5.1,0,0,1-4-1.9c-1.1-1.2-1.6-3.3-1.6-6.2v-.9a11.8,11.8,0,0,0,.1-1.6V4.9a1.3,1.3,0,0,0-.4-.7l-1.9-.4-.9-.2Z" transform="translate(0 0)"/><path class="cls-2" d="M115.2,15.3a17.8,17.8,0,0,0,1.3,2.9,6.3,6.3,0,0,0,2.2,2.1,5,5,0,0,0,2.7.7,3.7,3.7,0,0,0,2.6-1.1,2.6,2.6,0,0,0,1-2,4.6,4.6,0,0,0-1.1-2.9,12.9,12.9,0,0,0-4.2-2.4,9.8,9.8,0,0,1-4.2-2.5,4.8,4.8,0,0,1-1.1-3,4.5,4.5,0,0,1,.9-2.8,5.7,5.7,0,0,1,2.4-1.9,7.9,7.9,0,0,1,2.8-.6,12.6,12.6,0,0,1,3,.3,5.2,5.2,0,0,1,2.3.8,15,15,0,0,1,.3,3.5v.7h-.9a5.8,5.8,0,0,0-2.1-3.1,4.6,4.6,0,0,0-2.9-1.2,3.2,3.2,0,0,0-2.3.9,3.3,3.3,0,0,0-.8,2.2,2.6,2.6,0,0,0,.7,1.9c.4.6,1.5,1.2,3.3,1.9a18.2,18.2,0,0,1,3.8,2,4.6,4.6,0,0,1,1.7,2.2,5.7,5.7,0,0,1,.6,2.4,5.3,5.3,0,0,1-1.1,3.1,6,6,0,0,1-2.7,2,7.9,7.9,0,0,1-2.8.6,14.7,14.7,0,0,1-5.6-1.1,1.5,1.5,0,0,1-.2-.8,1.8,1.8,0,0,0-.1-.6c-.2-2.2-.3-3.4-.3-3.8s0-.3.1-.4h.6" transform="translate(0 0)"/><path class="cls-3" d="M144,21a6.9,6.9,0,0,0,3.4-.9,7.5,7.5,0,0,0,2.7-3.1,13.1,13.1,0,0,0,1-5,14.6,14.6,0,0,0-.8-4.2,6.7,6.7,0,0,0-2.4-3.7,5.9,5.9,0,0,0-3.7-1.2,7.7,7.7,0,0,0-3.2.7,6.1,6.1,0,0,0-2.7,2.8,12.2,12.2,0,0,0-1.1,5.9c0,2.9.6,5.1,1.9,6.5A6.1,6.1,0,0,0,144,21m-10.5-9.2a11.5,11.5,0,0,1,.7-3.4,9.4,9.4,0,0,1,2-3.3A9.3,9.3,0,0,1,139.1,3a12.2,12.2,0,0,1,5.3-1,9.7,9.7,0,0,1,7.3,3,9.9,9.9,0,0,1,3,7.3,9,9,0,0,1-3.1,6.7,10.8,10.8,0,0,1-7.8,2.9,11.2,11.2,0,0,1-5.6-1.5,10.8,10.8,0,0,1-3.3-3.4,9.9,9.9,0,0,1-1.4-5.2" transform="translate(0 0)"/><path class="cls-3" d="M157.3,20.5l1.4-.3a5.9,5.9,0,0,0,1.8-.4,2.1,2.1,0,0,0,.3-1.3V9.2c0-1-.1-1.6-.4-1.9a4.6,4.6,0,0,0-2.3-.9V5.6a9,9,0,0,0,2.6-1.3A8.7,8.7,0,0,0,163,1.4h.8V5l.6-.4a22.9,22.9,0,0,1,2.9-1.8l2.7-.9,1.6-.2a5.9,5.9,0,0,1,3.3,1,4.4,4.4,0,0,1,1.8,2.5,22.8,22.8,0,0,1,.4,5.6v6.3a9.9,9.9,0,0,0,.1,2.1,1.7,1.7,0,0,0,.6.6,5.6,5.6,0,0,1,2.7.8h0a1.4,1.4,0,0,1-.2.6h-9.7l-.2-.5c0-.1.1-.2.2-.3a4,4,0,0,1,1.8-.4l.9-.2.7-.3a4.4,4.4,0,0,0,.2-1V18c-.1-.8-.1-2.6-.1-5.4V9.4q0-3-1.2-4.2a4.9,4.9,0,0,0-3.3-1.1,6.6,6.6,0,0,0-3,.7,9.1,9.1,0,0,0-3,2.1V14c0,2.7,0,4.4.1,5a2,2,0,0,0,.1.5l.8.3,1.3.4,1,.2c.3.1.5.2.6.5v.5H157.3v-.8" transform="translate(0 0)"/><path class="cls-3" d="M186.6,8h1.1l7.1-.4H196a1.2,1.2,0,0,0,.4-.8,3,3,0,0,0-.5-1.7,2.7,2.7,0,0,0-1.4-1.4,4.4,4.4,0,0,0-2.3-.6,5.4,5.4,0,0,0-4.4,2.1A4.8,4.8,0,0,0,186.6,8m13.1.9H186.3a2.4,2.4,0,0,0-.2,1v1.6a8.6,8.6,0,0,0,.9,3.5,6.8,6.8,0,0,0,2.5,3.2,8.3,8.3,0,0,0,4.3,1.2l2.1-.3,2.3-1.2,1.7-1.4v1.3a10.3,10.3,0,0,1-2.7,2.3,12.1,12.1,0,0,1-3.3,1.5,8.7,8.7,0,0,1-2.6.2,7.2,7.2,0,0,1-3.3-.7,8.1,8.1,0,0,1-3.8-3.3,10.8,10.8,0,0,1-1.4-5.6,9.7,9.7,0,0,1,.4-2.6,11.1,11.1,0,0,1,1.4-3.5,5.5,5.5,0,0,1,1.7-2,9,9,0,0,1,2.4-1.6,10,10,0,0,1,3.6-.7,7.7,7.7,0,0,1,3.6.8,7.5,7.5,0,0,1,2.8,2.8,6.4,6.4,0,0,1,.9,3Z" transform="translate(0 0)"/><path class="cls-2" d="M81.3,32.2l.4.7a1,1,0,0,0,.5.6l.8.2a1.1,1.1,0,0,0,.7-.3.7.7,0,0,0,.3-.6,1.1,1.1,0,0,0-.3-.7,2.2,2.2,0,0,0-1.2-.7,1.9,1.9,0,0,1-1.1-.7,1.1,1.1,0,0,1-.3-.8,1.4,1.4,0,0,1,.2-.7,1.2,1.2,0,0,1,.7-.5,1.1,1.1,0,0,1,.7-.2h.9l.6.2c0,.2.1.5.1.9v.2h-.2l-.6-.8-.8-.3-.6.2a.9.9,0,0,0-.3.6.8.8,0,0,0,.2.5l.9.6a2.8,2.8,0,0,1,1.1.5,2.1,2.1,0,0,1,.4.6,1.4,1.4,0,0,1,.2.7,1.3,1.3,0,0,1-.3.8,1.8,1.8,0,0,1-.7.5l-.8.2a3.3,3.3,0,0,1-1.5-.3c-.1-.1-.1-.1-.1-.2v-.2a5.8,5.8,0,0,1-.1-1h.2" transform="translate(0 0)"/><path class="cls-2" d="M97.6,33.7a1.9,1.9,0,0,0,1-.3c.3-.1.5-.4.7-.8a2.7,2.7,0,0,0,.2-1.3,2.5,2.5,0,0,0-.2-1.2,1.5,1.5,0,0,0-1.6-1.3,1.5,1.5,0,0,0-.9.2,1.6,1.6,0,0,0-.7.7,3.5,3.5,0,0,0-.3,1.6,3,3,0,0,0,.5,1.8,1.8,1.8,0,0,0,1.3.6m-2.8-2.5a2.9,2.9,0,0,1,.2-.9,1.9,1.9,0,0,1,.5-.9,2.1,2.1,0,0,1,.8-.6,3.2,3.2,0,0,1,1.4-.3,2.5,2.5,0,0,1,2,.9,2.4,2.4,0,0,1,.8,1.9,2.2,2.2,0,0,1-.8,1.8,2.8,2.8,0,0,1-2.1.8,2.4,2.4,0,0,1-1.5-.4,2,2,0,0,1-.9-.9,2.3,2.3,0,0,1-.4-1.4" transform="translate(0 0)"/><path class="cls-2" d="M110.5,25.9v-.2h.4l1-.3h.3v.3c0,3.5-.1,5.6-.1,6.3v.6c0,.5,0,.8.1.8s.2.2.4.2.5,0,.5.1h-2.9a.1.1,0,0,1,.1-.1c0-.1.2-.1.4-.1h.5a.4.4,0,0,0,.1-.3V26.6a.4.4,0,0,0-.1-.3l-.3-.2-.5-.2" transform="translate(0 0)"/><path class="cls-2" d="M122.6,28.8h1.6v2.3a4.2,4.2,0,0,0,.1,1.4.5.5,0,0,0,.3.5h.7a1.5,1.5,0,0,0,.9-.2l.7-.4V30.4c0-.7,0-1.1-.1-1.2l-.7-.2h-.4v-.2h2.1v.4a17.7,17.7,0,0,0-.1,2.4V33h1l-1.4.4h-.4v-1l-.2.2-1.1.6-.7.2a1.6,1.6,0,0,1-1.1-.5,2.5,2.5,0,0,1-.4-1.7V29.3a.3.3,0,0,0-.1-.2h-.7Z" transform="translate(0 0)"/><path class="cls-2" d="M139.8,27.5h.2v1.4h1.7v.5H140a.4.4,0,0,0-.1.3v2.7a2,2,0,0,0,.2.9l.5.2h.6l.4-.2h.2l-.6.5h-1l-.7-.2a.5.5,0,0,1-.3-.4,3.5,3.5,0,0,1-.1-1.2V29.4h-.8l.3-.2a.5.5,0,0,0,.4-.3.8.8,0,0,0,.4-.4c0-.1.1-.2.2-.5s.1-.3.2-.3" transform="translate(0 0)"/><path class="cls-2" d="M151.8,25.9l.2-.3c.1-.2.2-.2.4-.2l.4.2.2.3a.5.5,0,0,1-.2.4l-.4.2a.7.7,0,0,1-.6-.6m-.5,3.3V29h.4l.5-.3.4-.5h.2a1.1,1.1,0,0,1,.1.5V33c0,.1.1.2.1.3l.5.2h-2.5a.1.1,0,0,1,.1-.1l.7-.2h.3c0-.1.1-.2.1-.4V30.2c0-.3,0-.5-.1-.6a.3.3,0,0,0-.1-.2l-.6-.2" transform="translate(0 0)"/><path class="cls-2" d="M166.4,33.7a1.6,1.6,0,0,0,.9-.3,1.1,1.1,0,0,0,.7-.8,2.8,2.8,0,0,0,.3-1.3,5,5,0,0,0-.2-1.2,2.4,2.4,0,0,0-.6-1,2,2,0,0,0-1.1-.3,1.3,1.3,0,0,0-.8.2,1.8,1.8,0,0,0-.8.7,3.5,3.5,0,0,0-.3,1.6,2.4,2.4,0,0,0,.6,1.8,1.6,1.6,0,0,0,1.3.6m-2.9-2.5a2.9,2.9,0,0,1,.2-.9,2,2,0,0,1,.6-.9,1.6,1.6,0,0,1,.8-.6,2.9,2.9,0,0,1,1.4-.3,2.5,2.5,0,0,1,2,.9,2.7,2.7,0,0,1,.8,1.9,2.5,2.5,0,0,1-.8,1.8,2.9,2.9,0,0,1-2.2.8,2.8,2.8,0,0,1-1.5-.4,3.8,3.8,0,0,1-.9-.9,3.3,3.3,0,0,1-.4-1.4" transform="translate(0 0)"/><path class="cls-2" d="M179.2,33.6h.8c.1-.1.1-.2.1-.4V30.5c0-.3,0-.4-.1-.5l-.6-.3v-.2l.7-.3.6-.8h.2v1c.1-.1.2-.1.2-.2l.8-.4.7-.3h.5a1.5,1.5,0,0,1,.9.2,1.8,1.8,0,0,1,.5.7c0,.3.1.8.1,1.5v2.3l.2.2a1,1,0,0,1,.7.2h0c0,.1,0,.1-.1.2h-2.6v-.2h.7c.1,0,.2,0,.2-.1a.4.4,0,0,0,.1-.3h0V30.6c0-.6-.1-1-.4-1.2a1.2,1.2,0,0,0-.9-.3l-.8.2a2.1,2.1,0,0,0-.8.6v1.9a3.5,3.5,0,0,0,.1,1.3v.2h.8c.1.1.2.1.2.2h-2.8" transform="translate(0 0)"/><path class="cls-2" d="M195.7,32.2l.4.7a1,1,0,0,0,.5.6l.8.2a1.1,1.1,0,0,0,.7-.3.7.7,0,0,0,.3-.6,1.1,1.1,0,0,0-.3-.7,2.2,2.2,0,0,0-1.2-.7,2.3,2.3,0,0,1-1.1-.7,1.1,1.1,0,0,1-.3-.8,1.4,1.4,0,0,1,.2-.7,1.2,1.2,0,0,1,.7-.5,1.2,1.2,0,0,1,.8-.2h.8l.6.2c0,.2.1.5.1.9v.2h-.2l-.6-.8a1.3,1.3,0,0,0-.8-.3l-.6.2a.9.9,0,0,0-.3.6.8.8,0,0,0,.2.5l.9.6a2.3,2.3,0,0,1,1.1.5l.4.6a1.4,1.4,0,0,1,.2.7,1.3,1.3,0,0,1-.3.8,1.8,1.8,0,0,1-.7.5l-.8.2a4,4,0,0,1-1.5-.3c0-.1-.1-.1-.1-.2v-.2a5.8,5.8,0,0,1-.1-1h.2" transform="translate(0 0)"/><path class="cls-4" d="M32.8,13.7a4.8,4.8,0,0,1,0,6.7L20.4,32.8a4.8,4.8,0,0,1-6.7,0L1.4,20.4a4.6,4.6,0,0,1,0-6.7L13.7,1.4a4.6,4.6,0,0,1,6.7,0Z" transform="translate(0 0)"/><g class="cls-5"><path class="cls-6" d="M12.6,20.7a13.1,13.1,0,0,0,2.7-.3,9,9,0,0,0,2.4-1.2,5.8,5.8,0,0,0,1.6-1.9,11.8,11.8,0,0,0,1-2.7,16.6,16.6,0,0,0,.3-3.2A14.5,14.5,0,0,0,20,7.3a7.2,7.2,0,0,0-1.5-2.7A6.4,6.4,0,0,0,16,2.8a7.1,7.1,0,0,0-3.2-.7,8.4,8.4,0,0,0-2.7.4A5.3,5.3,0,0,0,8,3.7a6.7,6.7,0,0,0-1.6,2A11.7,11.7,0,0,0,5.3,8.5a17,17,0,0,0-.4,2.8,17,17,0,0,0,.4,2.8,13.9,13.9,0,0,0,1,2.7,11.6,11.6,0,0,0,1.6,2.1,10.2,10.2,0,0,0,2.2,1.4,6.9,6.9,0,0,0,2.5.4M2.2,11.4a7.9,7.9,0,0,1,.4-2.8A9.8,9.8,0,0,1,3.8,6,9.3,9.3,0,0,1,5.9,3.7,13.4,13.4,0,0,1,9.3,2a13.7,13.7,0,0,1,3.9-.5,10.6,10.6,0,0,1,3.1.5A8.1,8.1,0,0,1,19,3.1a8,8,0,0,1,2.5,2.4,7.6,7.6,0,0,1,1.3,2.3,9.7,9.7,0,0,1,.6,3.4,14.9,14.9,0,0,1-.4,3.3,12.6,12.6,0,0,1-1.3,2.6,13.5,13.5,0,0,1-2.4,2.2,7.8,7.8,0,0,1-2.9,1.4,10.5,10.5,0,0,1-3.6.6,12.5,12.5,0,0,1-3.6-.5,12.7,12.7,0,0,1-2.6-1.1,12.8,12.8,0,0,1-2.2-2,8.3,8.3,0,0,1-1.6-2.9,9.3,9.3,0,0,1-.6-3.4" transform="translate(0 0)"/><path class="cls-7" d="M21.3,30.4a12.7,12.7,0,0,0,2.6-.4,5.5,5.5,0,0,0,2.4-1.2A5.8,5.8,0,0,0,28,27a8.5,8.5,0,0,0,.9-2.7,12.4,12.4,0,0,0,.4-3.3,14.5,14.5,0,0,0-.6-4.1,7.2,7.2,0,0,0-1.5-2.7,6.8,6.8,0,0,0-2.6-1.8,6.8,6.8,0,0,0-3.2-.7,7.5,7.5,0,0,0-2.6.5,9,9,0,0,0-2.2,1.1,8.3,8.3,0,0,0-1.6,2,23.3,23.3,0,0,0-1.1,2.8,15.8,15.8,0,0,0-.3,2.8,14.9,14.9,0,0,0,.3,2.8A10.2,10.2,0,0,0,15,26.5a7.4,7.4,0,0,0,1.6,2,6,6,0,0,0,2.1,1.4,7.5,7.5,0,0,0,2.6.5M10.8,21a11,11,0,0,1,.4-2.7,11.9,11.9,0,0,1,1.2-2.6,9.8,9.8,0,0,1,2.1-2.4A11.4,11.4,0,0,1,18,11.7a10.6,10.6,0,0,1,3.8-.5,10.6,10.6,0,0,1,3.1.4,11.8,11.8,0,0,1,2.8,1.2,10.2,10.2,0,0,1,2.5,2.3,7.2,7.2,0,0,1,1.2,2.3,9.7,9.7,0,0,1,.6,3.4,10.6,10.6,0,0,1-.4,3.3,7.9,7.9,0,0,1-1.3,2.6A10.7,10.7,0,0,1,27.9,29a12.2,12.2,0,0,1-2.8,1.4,15,15,0,0,1-3.7.5,10.5,10.5,0,0,1-3.6-.5,8.9,8.9,0,0,1-2.6-1.1,7.7,7.7,0,0,1-2.1-2,7.7,7.7,0,0,1-1.7-2.9,9.3,9.3,0,0,1-.6-3.4" transform="translate(0 0)"/><path class="cls-6" d="M10.4,20.4a8,8,0,0,0,3.8.2v.6a13.4,13.4,0,0,1-4-.1Z" transform="translate(0 0)"/></g></g></g></svg>